<svg xmlns="http://www.w3.org/2000/svg" xmlns:xlink="http://www.w3.org/1999/xlink" width="500" zoomAndPan="magnify" viewBox="0 0 375 374.999991" height="500" preserveAspectRatio="xMidYMid meet" version="1.0"><defs><g/><clipPath id="ab19fd23fa"><path d="M 16.28125 16.28125 L 358.71875 16.28125 L 358.71875 358.71875 L 16.28125 358.71875 Z M 16.28125 16.28125 " clip-rule="nonzero"/></clipPath><clipPath id="c5fd7c033c"><path d="M 187.5 16.28125 C 92.9375 16.28125 16.28125 92.9375 16.28125 187.5 C 16.28125 282.0625 92.9375 358.71875 187.5 358.71875 C 282.0625 358.71875 358.71875 282.0625 358.71875 187.5 C 358.71875 92.9375 282.0625 16.28125 187.5 16.28125 Z M 187.5 16.28125 " clip-rule="nonzero"/></clipPath></defs><g clip-path="url(#ab19fd23fa)"><g clip-path="url(#c5fd7c033c)"><path fill="#000000" d="M 16.28125 16.28125 L 358.71875 16.28125 L 358.71875 358.71875 L 16.28125 358.71875 Z M 16.28125 16.28125 " fill-opacity="1" fill-rule="nonzero"/></g></g><g fill="#ff5757" fill-opacity="1"><g transform="translate(67.722285, 151.26285)"><g><path d="M 1.515625 -4.015625 L -6.03125 -6.875 L -2.46875 -16.28125 L 5.078125 -13.421875 L 5.734375 -15.140625 L -10.75 -21.375 L -11.40625 -19.65625 L -4.125 -16.90625 L -7.6875 -7.5 L -14.96875 -10.25 L -15.609375 -8.53125 L 0.875 -2.296875 Z M 1.515625 -4.015625 "/></g></g></g><g fill="#ff5757" fill-opacity="1"><g transform="translate(80.172266, 122.845613)"><g><path d="M 1.109375 -1.609375 L -1.484375 -5.765625 L 3.984375 -13.671875 L 8.765625 -12.6875 L 9.875 -14.296875 L -8.953125 -18.0625 L -10.140625 -16.34375 L 0.03125 -0.046875 Z M 2.171875 -14.03125 L -2.484375 -7.296875 L -7.984375 -16.078125 Z M 2.171875 -14.03125 "/></g></g></g><g fill="#ff5757" fill-opacity="1"><g transform="translate(98.418951, 99.156859)"><g><path d="M -1.5625 -8.1875 L 1.109375 -10.59375 L 9.75 -8.765625 L 11.421875 -10.265625 L 2.390625 -12.171875 C 4.125 -14.1875 4.625 -16.921875 2.609375 -19.15625 C 0.78125 -21.203125 -2.21875 -21.703125 -5.40625 -18.828125 L -9.953125 -14.75 L 1.828125 -1.640625 L 3.203125 -2.875 Z M -2.703125 -9.4375 L -7.421875 -14.703125 L -4.34375 -17.46875 C -1.84375 -19.71875 0.125 -19.140625 1.28125 -17.84375 C 2.453125 -16.53125 2.71875 -14.3125 0.34375 -12.171875 Z M -2.703125 -9.4375 "/></g></g></g><g fill="#ff5757" fill-opacity="1"><g transform="translate(120.760224, 81.082138)"><g><path d="M 4.046875 -20.46875 L 3.21875 -21.953125 L -6.421875 -16.59375 L 2.140625 -1.1875 L 11.875 -6.59375 L 11.046875 -8.09375 L 2.921875 -3.59375 L -0.1875 -9.1875 L 7.171875 -13.265625 L 6.34375 -14.75 L -1.015625 -10.671875 L -3.984375 -16.015625 Z M 4.046875 -20.46875 "/></g></g></g><g fill="#ff5757" fill-opacity="1"><g transform="translate(145.524614, 68.969954)"><g><path d="M 3.609375 -2.90625 L -1 -18.125 L -2.765625 -17.59375 L 2.34375 -0.71875 L 12.109375 -3.671875 L 11.609375 -5.328125 Z M 3.609375 -2.90625 "/></g></g></g><g fill="#ff5757" fill-opacity="1"><g transform="translate(170.790326, 62.854433)"><g/></g></g><g fill="#ffffff" fill-opacity="1"><g transform="translate(189.739901, 61.297833)"><g><path d="M 19.6875 -7.078125 C 20.15625 -12.0625 16.75 -16.328125 11.71875 -16.796875 C 6.640625 -17.265625 2.5 -13.65625 2.03125 -8.625 C 1.5625 -3.609375 4.96875 0.65625 9.984375 1.125 C 15.078125 1.59375 19.21875 -2.03125 19.6875 -7.078125 Z M 17.75 -7.15625 C 17.390625 -3.21875 14.234375 -0.234375 10.203125 -0.609375 C 6.125 -0.984375 3.5625 -4.578125 3.9375 -8.546875 C 4.296875 -12.453125 7.453125 -15.453125 11.5 -15.078125 C 15.578125 -14.703125 18.125 -11.078125 17.75 -7.15625 Z M 17.75 -7.15625 "/></g></g></g><g fill="#ffffff" fill-opacity="1"><g transform="translate(221.959204, 66.180098)"><g><path d="M 4.640625 -0.265625 L 9.71875 -15.328125 L 7.96875 -15.921875 L 2.328125 0.78125 L 11.984375 4.046875 L 12.546875 2.40625 Z M 4.640625 -0.265625 "/></g></g></g><g fill="#ffffff" fill-opacity="1"><g transform="translate(245.892673, 75.41176)"><g><path d="M 21.828125 -1.140625 C 22.46875 -3.84375 21.671875 -7.515625 17.96875 -9.8125 C 13.65625 -12.5 8.328125 -11.125 5.65625 -6.8125 C 2.984375 -2.515625 3.890625 2.625 8.421875 5.4375 C 12.78125 8.140625 17.3125 6.734375 19.65625 2.953125 L 20.015625 2.375 L 12.078125 -2.546875 L 11.171875 -1.09375 L 17.421875 2.78125 C 15.484375 5.515625 12.015625 5.640625 9.359375 3.984375 C 5.71875 1.71875 5.21875 -2.484375 7.328125 -5.90625 C 9.578125 -9.515625 13.78125 -10.34375 16.984375 -8.34375 C 20.125 -6.40625 20.484375 -3.5625 20 -1.359375 Z M 21.828125 -1.140625 "/></g></g></g><g fill="#ffffff" fill-opacity="1"><g transform="translate(271.896572, 93.451023)"><g><path d="M 23.421875 -1.15625 L 22.125 -2.46875 L 14.3125 5.109375 C 11.96875 7.390625 9.421875 7.515625 7.3125 5.328125 C 5.40625 3.375 5.015625 0.84375 7.78125 -1.84375 L 15.5 -9.328125 L 14.203125 -10.65625 L 6.421875 -3.109375 C 3.421875 -0.203125 3.046875 3.421875 6.015625 6.484375 C 8.921875 9.484375 12.515625 9.40625 15.71875 6.3125 Z M 23.421875 -1.15625 "/></g></g></g><g fill="#ffffff" fill-opacity="1"><g transform="translate(291.696923, 116.50834)"><g><path d="M 17.5625 -8.25 L 18.46875 -6.828125 L 23.296875 -6.5 L 22.140625 -8.296875 Z M 17.15625 -5.875 L 2.3125 3.625 L 1.328125 2.0625 L 16.171875 -7.4375 Z M 17.15625 -5.875 "/></g></g></g><g fill="#ffffff" fill-opacity="1"><g transform="translate(301.641551, 133.273887)"><g><path d="M 5.984375 15.703125 L 22.453125 9.421875 L 21.8125 7.734375 L 8.0625 12.984375 L 18.109375 -1.984375 L 17.34375 -3.984375 L 0.875 2.296875 L 1.53125 4 L 15.5625 -1.34375 L 5.28125 13.875 Z M 5.984375 15.703125 "/></g></g></g><path stroke-linecap="butt" transform="matrix(0, -0.75, 0.75, 0, 186.369631, 262.747454)" fill="none" stroke-linejoin="miter" d="M 0.0018136 1.501951 L 200.668493 1.501951 " stroke="#ffffff" stroke-width="3" stroke-opacity="1" stroke-miterlimit="4"/><g fill="#ffffff" fill-opacity="1"><g transform="translate(75.319307, 274.510629)"><g><path d="M 12.765625 -4.875 C 13.53125 -5.5625 14.703125 -5.390625 15.65625 -4.296875 C 16.65625 -3.15625 16.9375 -1.75 16.265625 -0.375 L 19.46875 0.8125 C 20.609375 -1.53125 20.203125 -4.15625 18.25 -6.375 C 16.046875 -8.875 12.5625 -9.546875 10.203125 -7.46875 C 9.1875 -6.578125 8.703125 -5.421875 8.640625 -4.296875 C 8.5625 -2.96875 9.0625 -1.4375 9.875 0.34375 C 11 2.78125 11.125 3.671875 10.359375 4.359375 C 9.546875 5.0625 8.21875 4.75 7.1875 3.578125 C 6.015625 2.234375 5.796875 0.5625 6.484375 -0.9375 L 3.1875 -2.25 C 1.984375 0.21875 2.421875 3.171875 4.625 5.671875 C 7.375 8.796875 10.65625 8.96875 12.984375 6.921875 C 15.21875 4.953125 14.765625 2.359375 13.03125 -1.3125 C 12.1875 -3.09375 11.9375 -4.140625 12.765625 -4.875 Z M 12.765625 -4.875 "/></g></g></g><g fill="#ffffff" fill-opacity="1"><g transform="translate(96.97708, 296.696192)"><g><path d="M 5.84375 -6.640625 C 2.9375 -2.484375 3.953125 3.09375 8.109375 6.015625 C 12.25 8.90625 17.9375 7.96875 20.875 3.765625 C 23.78125 -0.375 22.75 -5.921875 18.59375 -8.84375 C 14.453125 -11.734375 8.75 -10.796875 5.84375 -6.640625 Z M 8.921875 -4.53125 C 10.65625 -7.015625 14.046875 -7.703125 16.53125 -5.953125 C 19.015625 -4.203125 19.546875 -0.796875 17.8125 1.6875 C 16.0625 4.1875 12.65625 4.890625 10.171875 3.140625 C 7.6875 1.390625 7.171875 -2.03125 8.921875 -4.53125 Z M 8.921875 -4.53125 "/></g></g></g><g fill="#ffffff" fill-opacity="1"><g transform="translate(128.127868, 315.731065)"><g><path d="M 9.109375 -7.625 L 10.46875 -11.109375 L 17.890625 -8.203125 L 19.15625 -11.4375 L 8.328125 -15.671875 L 1.90625 0.75 L 5.3125 2.078125 L 7.84375 -4.390625 L 14.484375 -1.796875 L 15.75 -5.03125 Z M 9.109375 -7.625 "/></g></g></g><g fill="#ffffff" fill-opacity="1"><g transform="translate(157.358511, 325.284698)"><g><path d="M 5.703125 0.875 L 9.28125 1.4375 L 11.4375 -12.484375 L 16.671875 -11.6875 L 17.203125 -15.1875 L 3.15625 -17.34375 L 2.625 -13.84375 L 7.859375 -13.046875 Z M 5.703125 0.875 "/></g></g></g><g fill="#ffffff" fill-opacity="1"><g transform="translate(188.917844, 328.708702)"><g><path d="M 9.46875 -1.0625 L 11.875 -14.203125 L 11.921875 -14.203125 L 17.140625 -1.921875 L 21.0625 -2.359375 L 24.265625 -20.46875 L 20.546875 -20.046875 L 18.5 -7.125 L 13.3125 -19.234375 L 9.4375 -18.796875 L 7.046875 -5.9375 L 2.328125 -18 L -1.546875 -17.5625 L 5.578125 -0.625 Z M 9.46875 -1.0625 "/></g></g></g><g fill="#ffffff" fill-opacity="1"><g transform="translate(231.583487, 320.995273)"><g><path d="M 3.375 -1.375 L 3.25 -5.171875 L 10.484375 -8.109375 L 13.046875 -5.3125 L 16.53125 -6.734375 L 3.609375 -20.515625 L -0.453125 -18.859375 L -0.015625 0 Z M 2.90625 -16.390625 L 8.046875 -10.78125 L 3.140625 -8.765625 Z M 2.90625 -16.390625 "/></g></g></g><g fill="#ffffff" fill-opacity="1"><g transform="translate(262.351892, 306.29304)"><g><path d="M 12.671875 -9.109375 L 5.421875 -12.375 C 6.828125 -14.46875 6.8125 -16.640625 5.34375 -18.6875 C 3.15625 -21.71875 -0.203125 -21.5625 -2.96875 -19.5625 L -8.625 -15.5 L 1.65625 -1.1875 L 4.625 -3.328125 L 0.9375 -8.46875 L 2.734375 -9.75 L 9.375 -6.734375 Z M 1.421875 -12.96875 L -1.046875 -11.203125 L -3.65625 -14.84375 L -1.203125 -16.609375 C -0.078125 -17.40625 1.390625 -17.828125 2.375 -16.46875 C 3.359375 -15.109375 2.53125 -13.765625 1.421875 -12.96875 Z M 1.421875 -12.96875 "/></g></g></g><g fill="#ffffff" fill-opacity="1"><g transform="translate(287.690558, 285.719548)"><g><path d="M -11.875 -13.171875 L 1.359375 -1.53125 L 9.015625 -10.234375 L 6.453125 -12.484375 L 1.171875 -6.5 L -1.671875 -9.015625 L 3.03125 -14.34375 L 0.46875 -16.59375 L -4.234375 -11.265625 L -6.921875 -13.640625 L -1.671875 -19.59375 L -4.25 -21.84375 Z M -11.875 -13.171875 "/></g></g></g><g fill="#ff5757" fill-opacity="1"><g transform="translate(204.990161, 219.710997)"><g><path d="M 5.5 -33.703125 C 5.5 -39.859375 7.054688 -45.582031 10.171875 -50.875 C 13.285156 -56.164062 17.46875 -60.378906 22.71875 -63.515625 C 27.976562 -66.660156 33.722656 -68.234375 39.953125 -68.234375 C 46.109375 -68.234375 51.832031 -66.660156 57.125 -63.515625 C 62.414062 -60.378906 66.628906 -56.164062 69.765625 -50.875 C 72.910156 -45.582031 74.484375 -39.859375 74.484375 -33.703125 C 74.484375 -27.472656 72.925781 -21.710938 69.8125 -16.421875 C 66.707031 -11.140625 62.492188 -6.957031 57.171875 -3.875 C 51.847656 -0.789062 46.109375 0.75 39.953125 0.75 C 33.722656 0.75 27.960938 -0.773438 22.671875 -3.828125 C 17.390625 -6.878906 13.207031 -11.03125 10.125 -16.28125 C 7.039062 -21.539062 5.5 -27.347656 5.5 -33.703125 Z M 14.84375 -33.609375 C 14.84375 -29.003906 15.960938 -24.738281 18.203125 -20.8125 C 20.441406 -16.894531 23.503906 -13.785156 27.390625 -11.484375 C 31.285156 -9.179688 35.535156 -8.03125 40.140625 -8.03125 C 44.742188 -8.03125 48.957031 -9.164062 52.78125 -11.4375 C 56.613281 -13.707031 59.632812 -16.816406 61.84375 -20.765625 C 64.050781 -24.722656 65.15625 -29.035156 65.15625 -33.703125 C 65.15625 -38.367188 64.035156 -42.691406 61.796875 -46.671875 C 59.554688 -50.648438 56.503906 -53.789062 52.640625 -56.09375 C 48.785156 -58.394531 44.554688 -59.546875 39.953125 -59.546875 C 35.347656 -59.546875 31.113281 -58.378906 27.25 -56.046875 C 23.394531 -53.710938 20.363281 -50.554688 18.15625 -46.578125 C 15.945312 -42.597656 14.84375 -38.273438 14.84375 -33.609375 Z M 14.84375 -33.609375 "/></g></g></g><g fill="#ffffff" fill-opacity="1"><g transform="translate(94.090504, 219.710997)"><g><path d="M 63.1875 0 L 54.140625 0 L 54.140625 -29.59375 L 18.765625 -29.59375 L 18.765625 0 L 9.703125 0 L 9.703125 -67.484375 L 18.765625 -67.484375 L 18.765625 -38.265625 L 54.140625 -38.265625 L 54.140625 -67.484375 L 63.1875 -67.484375 Z M 63.1875 0 "/></g></g></g></svg>